<mxfile host="app.diagrams.net" agent="Mozilla/5.0 (Windows NT 10.0; Win64; x64) AppleWebKit/537.36 (KHTML, like Gecko) Chrome/135.0.0.0 Safari/537.36" version="26.3.0">
  <diagram name="Trang-1" id="3O6v079cTNL4a60Rlskj">
    <mxGraphModel dx="1281" dy="1731" grid="1" gridSize="10" guides="1" tooltips="1" connect="1" arrows="1" fold="1" page="1" pageScale="1" pageWidth="827" pageHeight="1169" math="0" shadow="0">
      <root>
        <mxCell id="0" />
        <mxCell id="1" parent="0" />
        <mxCell id="9X-iyGA57ElhtHI6-V3u-1" value="" style="shape=internalStorage;whiteSpace=wrap;html=1;backgroundOutline=1;dx=126;dy=30;" vertex="1" parent="1">
          <mxGeometry x="64" y="-740" width="700" height="980" as="geometry" />
        </mxCell>
        <mxCell id="9X-iyGA57ElhtHI6-V3u-2" value="Người dùng" style="text;html=1;align=center;verticalAlign=middle;resizable=0;points=[];autosize=1;strokeColor=none;fillColor=none;" vertex="1" parent="1">
          <mxGeometry x="80" y="-740" width="90" height="30" as="geometry" />
        </mxCell>
        <mxCell id="9X-iyGA57ElhtHI6-V3u-3" value="Hệ thống" style="text;html=1;align=center;verticalAlign=middle;resizable=0;points=[];autosize=1;strokeColor=none;fillColor=none;" vertex="1" parent="1">
          <mxGeometry x="430" y="-740" width="70" height="30" as="geometry" />
        </mxCell>
        <mxCell id="9X-iyGA57ElhtHI6-V3u-6" value="Đưa vé" style="html=1;align=center;verticalAlign=middle;rounded=1;absoluteArcSize=1;arcSize=10;dashed=0;whiteSpace=wrap;" vertex="1" parent="1">
          <mxGeometry x="85" y="-640" width="80" height="20" as="geometry" />
        </mxCell>
        <mxCell id="9X-iyGA57ElhtHI6-V3u-8" value="" style="ellipse;html=1;shape=startState;fillColor=#000000;strokeColor=#ff0000;" vertex="1" parent="1">
          <mxGeometry x="110" y="-710" width="30" height="30" as="geometry" />
        </mxCell>
        <mxCell id="9X-iyGA57ElhtHI6-V3u-9" value="" style="edgeStyle=orthogonalEdgeStyle;html=1;verticalAlign=bottom;endArrow=open;endSize=8;strokeColor=#ff0000;rounded=0;entryX=0.5;entryY=0;entryDx=0;entryDy=0;" edge="1" source="9X-iyGA57ElhtHI6-V3u-8" parent="1" target="9X-iyGA57ElhtHI6-V3u-6">
          <mxGeometry relative="1" as="geometry">
            <mxPoint x="125" y="-640" as="targetPoint" />
          </mxGeometry>
        </mxCell>
        <mxCell id="9X-iyGA57ElhtHI6-V3u-10" value="Đọc mã vạch" style="html=1;align=center;verticalAlign=middle;rounded=1;absoluteArcSize=1;arcSize=10;dashed=0;whiteSpace=wrap;" vertex="1" parent="1">
          <mxGeometry x="374" y="-640" width="80" height="20" as="geometry" />
        </mxCell>
        <mxCell id="9X-iyGA57ElhtHI6-V3u-12" value="" style="endArrow=classic;html=1;rounded=0;exitX=1;exitY=0.5;exitDx=0;exitDy=0;entryX=0;entryY=0.5;entryDx=0;entryDy=0;" edge="1" parent="1" source="9X-iyGA57ElhtHI6-V3u-6" target="9X-iyGA57ElhtHI6-V3u-10">
          <mxGeometry width="50" height="50" relative="1" as="geometry">
            <mxPoint x="390" y="-500" as="sourcePoint" />
            <mxPoint x="440" y="-550" as="targetPoint" />
          </mxGeometry>
        </mxCell>
        <mxCell id="9X-iyGA57ElhtHI6-V3u-13" value="" style="endArrow=classic;html=1;rounded=0;exitX=0.5;exitY=1;exitDx=0;exitDy=0;entryX=0.5;entryY=0;entryDx=0;entryDy=0;" edge="1" parent="1" source="9X-iyGA57ElhtHI6-V3u-10" target="9X-iyGA57ElhtHI6-V3u-14">
          <mxGeometry width="50" height="50" relative="1" as="geometry">
            <mxPoint x="175" y="-620" as="sourcePoint" />
            <mxPoint x="384" y="-620" as="targetPoint" />
          </mxGeometry>
        </mxCell>
        <mxCell id="9X-iyGA57ElhtHI6-V3u-14" value="Kiểm tra vé&amp;nbsp; tồn tại" style="html=1;align=center;verticalAlign=middle;rounded=1;absoluteArcSize=1;arcSize=10;dashed=0;whiteSpace=wrap;" vertex="1" parent="1">
          <mxGeometry x="374" y="-580" width="80" height="40" as="geometry" />
        </mxCell>
        <mxCell id="9X-iyGA57ElhtHI6-V3u-15" value="Kiểm tra suất chiếu" style="html=1;align=center;verticalAlign=middle;rounded=1;absoluteArcSize=1;arcSize=10;dashed=0;whiteSpace=wrap;" vertex="1" parent="1">
          <mxGeometry x="440" y="-430" width="80" height="40" as="geometry" />
        </mxCell>
        <mxCell id="9X-iyGA57ElhtHI6-V3u-16" value="Kiểm tra vé được sử dụng chưa" style="html=1;align=center;verticalAlign=middle;rounded=1;absoluteArcSize=1;arcSize=10;dashed=0;whiteSpace=wrap;" vertex="1" parent="1">
          <mxGeometry x="500" y="-290" width="80" height="50" as="geometry" />
        </mxCell>
        <mxCell id="9X-iyGA57ElhtHI6-V3u-17" value="" style="shape=rhombus;html=1;verticalLabelPosition=bottom;verticalAlignment=top;" vertex="1" parent="1">
          <mxGeometry x="394" y="-500" width="40" height="40" as="geometry" />
        </mxCell>
        <mxCell id="9X-iyGA57ElhtHI6-V3u-21" value="" style="endArrow=classic;html=1;rounded=0;exitX=0.5;exitY=1;exitDx=0;exitDy=0;entryX=0.5;entryY=0;entryDx=0;entryDy=0;" edge="1" parent="1" target="9X-iyGA57ElhtHI6-V3u-17">
          <mxGeometry width="50" height="50" relative="1" as="geometry">
            <mxPoint x="414" y="-540" as="sourcePoint" />
            <mxPoint x="414" y="-500" as="targetPoint" />
          </mxGeometry>
        </mxCell>
        <mxCell id="9X-iyGA57ElhtHI6-V3u-22" value="" style="endArrow=classic;html=1;rounded=0;exitX=1;exitY=0.5;exitDx=0;exitDy=0;" edge="1" parent="1" source="9X-iyGA57ElhtHI6-V3u-17" target="9X-iyGA57ElhtHI6-V3u-15">
          <mxGeometry width="50" height="50" relative="1" as="geometry">
            <mxPoint x="570" y="-500" as="sourcePoint" />
            <mxPoint x="570" y="-460" as="targetPoint" />
            <Array as="points">
              <mxPoint x="480" y="-480" />
            </Array>
          </mxGeometry>
        </mxCell>
        <mxCell id="9X-iyGA57ElhtHI6-V3u-23" value="" style="endArrow=classic;html=1;rounded=0;exitX=0;exitY=0.5;exitDx=0;exitDy=0;entryX=0.5;entryY=0;entryDx=0;entryDy=0;" edge="1" parent="1" source="9X-iyGA57ElhtHI6-V3u-17" target="9X-iyGA57ElhtHI6-V3u-24">
          <mxGeometry width="50" height="50" relative="1" as="geometry">
            <mxPoint x="424" y="-530" as="sourcePoint" />
            <mxPoint x="424" y="-490" as="targetPoint" />
            <Array as="points">
              <mxPoint x="280" y="-480" />
            </Array>
          </mxGeometry>
        </mxCell>
        <mxCell id="9X-iyGA57ElhtHI6-V3u-24" value="Thông báo lỗi" style="html=1;align=center;verticalAlign=middle;rounded=1;absoluteArcSize=1;arcSize=10;dashed=0;whiteSpace=wrap;" vertex="1" parent="1">
          <mxGeometry x="240" y="70" width="80" height="30" as="geometry" />
        </mxCell>
        <mxCell id="9X-iyGA57ElhtHI6-V3u-25" value="" style="rhombus;whiteSpace=wrap;html=1;" vertex="1" parent="1">
          <mxGeometry x="460" y="-350" width="40" height="40" as="geometry" />
        </mxCell>
        <mxCell id="9X-iyGA57ElhtHI6-V3u-26" value="" style="endArrow=classic;html=1;rounded=0;exitX=0.5;exitY=1;exitDx=0;exitDy=0;entryX=0.5;entryY=0;entryDx=0;entryDy=0;" edge="1" parent="1" source="9X-iyGA57ElhtHI6-V3u-15" target="9X-iyGA57ElhtHI6-V3u-25">
          <mxGeometry width="50" height="50" relative="1" as="geometry">
            <mxPoint x="490" y="-380" as="sourcePoint" />
            <mxPoint x="490" y="-340" as="targetPoint" />
          </mxGeometry>
        </mxCell>
        <mxCell id="9X-iyGA57ElhtHI6-V3u-27" value="" style="endArrow=classic;html=1;rounded=0;exitX=1;exitY=0.5;exitDx=0;exitDy=0;entryX=0.5;entryY=0;entryDx=0;entryDy=0;" edge="1" parent="1" source="9X-iyGA57ElhtHI6-V3u-25" target="9X-iyGA57ElhtHI6-V3u-16">
          <mxGeometry width="50" height="50" relative="1" as="geometry">
            <mxPoint x="550" y="-330" as="sourcePoint" />
            <mxPoint x="626" y="-280" as="targetPoint" />
            <Array as="points">
              <mxPoint x="540" y="-330" />
            </Array>
          </mxGeometry>
        </mxCell>
        <mxCell id="9X-iyGA57ElhtHI6-V3u-28" value="" style="endArrow=classic;html=1;rounded=0;exitX=0;exitY=0.5;exitDx=0;exitDy=0;entryX=0.75;entryY=0;entryDx=0;entryDy=0;" edge="1" parent="1" source="9X-iyGA57ElhtHI6-V3u-25" target="9X-iyGA57ElhtHI6-V3u-24">
          <mxGeometry width="50" height="50" relative="1" as="geometry">
            <mxPoint x="488" y="-330" as="sourcePoint" />
            <mxPoint x="374" y="-10" as="targetPoint" />
            <Array as="points">
              <mxPoint x="300" y="-330" />
            </Array>
          </mxGeometry>
        </mxCell>
        <mxCell id="9X-iyGA57ElhtHI6-V3u-31" value="" style="rhombus;whiteSpace=wrap;html=1;" vertex="1" parent="1">
          <mxGeometry x="520" y="-190" width="40" height="40" as="geometry" />
        </mxCell>
        <mxCell id="9X-iyGA57ElhtHI6-V3u-32" value="" style="endArrow=classic;html=1;rounded=0;exitX=0.5;exitY=1;exitDx=0;exitDy=0;entryX=0.5;entryY=0;entryDx=0;entryDy=0;" edge="1" parent="1" source="9X-iyGA57ElhtHI6-V3u-16" target="9X-iyGA57ElhtHI6-V3u-31">
          <mxGeometry width="50" height="50" relative="1" as="geometry">
            <mxPoint x="580" y="-210" as="sourcePoint" />
            <mxPoint x="580" y="-170" as="targetPoint" />
          </mxGeometry>
        </mxCell>
        <mxCell id="9X-iyGA57ElhtHI6-V3u-34" value="" style="endArrow=classic;html=1;rounded=0;exitX=1;exitY=0.5;exitDx=0;exitDy=0;" edge="1" parent="1" source="9X-iyGA57ElhtHI6-V3u-31" target="9X-iyGA57ElhtHI6-V3u-36">
          <mxGeometry width="50" height="50" relative="1" as="geometry">
            <mxPoint x="570" y="-170" as="sourcePoint" />
            <mxPoint x="610" y="-120" as="targetPoint" />
            <Array as="points">
              <mxPoint x="610" y="-170" />
            </Array>
          </mxGeometry>
        </mxCell>
        <mxCell id="9X-iyGA57ElhtHI6-V3u-36" value="Cập nhập trạng thái vé" style="html=1;align=center;verticalAlign=middle;rounded=1;absoluteArcSize=1;arcSize=10;dashed=0;whiteSpace=wrap;" vertex="1" parent="1">
          <mxGeometry x="570" y="-80" width="80" height="30" as="geometry" />
        </mxCell>
        <mxCell id="9X-iyGA57ElhtHI6-V3u-39" value="Thông báo vé thỏa mãn" style="html=1;align=center;verticalAlign=middle;rounded=1;absoluteArcSize=1;arcSize=10;dashed=0;whiteSpace=wrap;" vertex="1" parent="1">
          <mxGeometry x="570" y="65" width="80" height="40" as="geometry" />
        </mxCell>
        <mxCell id="9X-iyGA57ElhtHI6-V3u-40" value="" style="endArrow=classic;html=1;rounded=0;exitX=0.5;exitY=1;exitDx=0;exitDy=0;entryX=0.5;entryY=0;entryDx=0;entryDy=0;" edge="1" parent="1" source="9X-iyGA57ElhtHI6-V3u-36" target="9X-iyGA57ElhtHI6-V3u-39">
          <mxGeometry width="50" height="50" relative="1" as="geometry">
            <mxPoint x="609.29" y="-20" as="sourcePoint" />
            <mxPoint x="609.29" y="30" as="targetPoint" />
          </mxGeometry>
        </mxCell>
        <mxCell id="9X-iyGA57ElhtHI6-V3u-41" value="Xác nhận" style="html=1;align=center;verticalAlign=middle;rounded=1;absoluteArcSize=1;arcSize=10;dashed=0;whiteSpace=wrap;" vertex="1" parent="1">
          <mxGeometry x="90" y="130" width="70" height="30" as="geometry" />
        </mxCell>
        <mxCell id="9X-iyGA57ElhtHI6-V3u-42" value="" style="endArrow=classic;html=1;rounded=0;entryX=1;entryY=0.25;entryDx=0;entryDy=0;" edge="1" parent="1" source="9X-iyGA57ElhtHI6-V3u-24" target="9X-iyGA57ElhtHI6-V3u-41">
          <mxGeometry width="50" height="50" relative="1" as="geometry">
            <mxPoint x="279.28999999999996" y="105" as="sourcePoint" />
            <mxPoint x="279.28999999999996" y="145" as="targetPoint" />
            <Array as="points">
              <mxPoint x="280" y="138" />
            </Array>
          </mxGeometry>
        </mxCell>
        <mxCell id="9X-iyGA57ElhtHI6-V3u-43" value="" style="endArrow=classic;html=1;rounded=0;exitX=0.5;exitY=1;exitDx=0;exitDy=0;entryX=1;entryY=0.75;entryDx=0;entryDy=0;" edge="1" parent="1" source="9X-iyGA57ElhtHI6-V3u-39" target="9X-iyGA57ElhtHI6-V3u-41">
          <mxGeometry width="50" height="50" relative="1" as="geometry">
            <mxPoint x="600" y="120" as="sourcePoint" />
            <mxPoint x="600" y="170" as="targetPoint" />
            <Array as="points">
              <mxPoint x="610" y="153" />
            </Array>
          </mxGeometry>
        </mxCell>
        <mxCell id="9X-iyGA57ElhtHI6-V3u-44" value="" style="ellipse;html=1;shape=endState;fillColor=#000000;strokeColor=#ff0000;" vertex="1" parent="1">
          <mxGeometry x="110" y="200" width="30" height="30" as="geometry" />
        </mxCell>
        <mxCell id="9X-iyGA57ElhtHI6-V3u-45" value="" style="endArrow=classic;html=1;rounded=0;exitX=0.5;exitY=1;exitDx=0;exitDy=0;entryX=0.5;entryY=0;entryDx=0;entryDy=0;" edge="1" parent="1" source="9X-iyGA57ElhtHI6-V3u-41" target="9X-iyGA57ElhtHI6-V3u-44">
          <mxGeometry width="50" height="50" relative="1" as="geometry">
            <mxPoint x="140" y="170" as="sourcePoint" />
            <mxPoint x="140" y="220" as="targetPoint" />
          </mxGeometry>
        </mxCell>
        <mxCell id="9X-iyGA57ElhtHI6-V3u-46" value="Tồn tại" style="text;html=1;align=center;verticalAlign=middle;resizable=0;points=[];autosize=1;strokeColor=none;fillColor=none;" vertex="1" parent="1">
          <mxGeometry x="430" y="-510" width="60" height="30" as="geometry" />
        </mxCell>
        <mxCell id="9X-iyGA57ElhtHI6-V3u-47" value="Không tồn tại" style="text;html=1;align=center;verticalAlign=middle;resizable=0;points=[];autosize=1;strokeColor=none;fillColor=none;" vertex="1" parent="1">
          <mxGeometry x="284" y="-510" width="90" height="30" as="geometry" />
        </mxCell>
        <mxCell id="9X-iyGA57ElhtHI6-V3u-48" value="Sai ngày giờ" style="text;html=1;align=center;verticalAlign=middle;resizable=0;points=[];autosize=1;strokeColor=none;fillColor=none;" vertex="1" parent="1">
          <mxGeometry x="360" y="-360" width="90" height="30" as="geometry" />
        </mxCell>
        <mxCell id="9X-iyGA57ElhtHI6-V3u-49" value="Đúng ngày giờ" style="text;html=1;align=center;verticalAlign=middle;resizable=0;points=[];autosize=1;strokeColor=none;fillColor=none;" vertex="1" parent="1">
          <mxGeometry x="500" y="-360" width="100" height="30" as="geometry" />
        </mxCell>
        <mxCell id="9X-iyGA57ElhtHI6-V3u-50" value="Chưa được dùng" style="text;html=1;align=center;verticalAlign=middle;resizable=0;points=[];autosize=1;strokeColor=none;fillColor=none;" vertex="1" parent="1">
          <mxGeometry x="560" y="-200" width="120" height="30" as="geometry" />
        </mxCell>
        <mxCell id="9X-iyGA57ElhtHI6-V3u-52" value="" style="endArrow=classic;html=1;rounded=0;exitX=0;exitY=0.5;exitDx=0;exitDy=0;" edge="1" parent="1" source="9X-iyGA57ElhtHI6-V3u-31" target="9X-iyGA57ElhtHI6-V3u-24">
          <mxGeometry width="50" height="50" relative="1" as="geometry">
            <mxPoint x="520" y="-170" as="sourcePoint" />
            <mxPoint x="320" y="85" as="targetPoint" />
            <Array as="points">
              <mxPoint x="350" y="-170" />
              <mxPoint x="350" y="85" />
            </Array>
          </mxGeometry>
        </mxCell>
        <mxCell id="9X-iyGA57ElhtHI6-V3u-51" value="Đã&amp;nbsp; dùng" style="text;html=1;align=center;verticalAlign=middle;resizable=0;points=[];autosize=1;strokeColor=none;fillColor=none;" vertex="1" parent="1">
          <mxGeometry x="400" y="-200" width="70" height="30" as="geometry" />
        </mxCell>
      </root>
    </mxGraphModel>
  </diagram>
</mxfile>
